# Blender v2.78 (sub 0) OBJ File: 'statek_GRK.blend'
# www.blender.org
mtllib mini_statek_GRK.mtl
o Cube_Cube.001
v -0.225135 0.027628 0.064216
v -0.237352 0.056291 0.075852
v -0.197820 0.063916 -0.086323
v -0.194461 0.026622 -0.070539
v -0.030660 -0.001479 -0.095778
v -0.034843 0.069234 -0.111856
v 0.034843 0.069234 -0.111856
v 0.030660 -0.001479 -0.095778
v 0.194461 0.026622 -0.070539
v 0.197820 0.063916 -0.086323
v 0.237352 0.056291 0.075852
v 0.225135 0.027628 0.064216
v 0.062404 0.027628 0.216731
v 0.051322 0.059713 0.198267
v -0.051322 0.059713 0.198267
v -0.062404 0.027628 0.216731
v -0.049943 -0.018663 -0.050643
v 0.049943 -0.018663 -0.050643
v 0.049943 -0.018663 0.054540
v -0.049943 -0.018663 0.054540
v 0.052592 0.109294 -0.052592
v -0.052592 0.109294 -0.052592
v -0.052592 0.109294 0.052592
v 0.052592 0.109294 0.052592
v -0.277390 0.052361 0.079236
v -0.309278 0.065167 -0.109623
v -0.227300 0.049320 -0.119984
v -0.266915 0.025896 -0.022768
v -0.026273 0.009764 -0.104072
v 0.000000 0.067396 -0.122665
v 0.026273 0.009764 -0.104072
v 0.000000 -0.002288 -0.104729
v 0.227300 0.049320 -0.119984
v 0.309278 0.065167 -0.109623
v 0.277390 0.052361 0.079236
v 0.266915 0.025896 -0.022768
v 0.072082 0.046866 0.262130
v 0.000000 0.061984 0.220020
v -0.072082 0.046866 0.262130
v 0.000000 0.026551 0.283910
v 0.000000 -0.038578 -0.056508
v 0.053859 -0.019112 0.001949
v 0.000000 -0.038578 0.056508
v -0.053859 -0.019112 0.001949
v 0.000000 0.113165 -0.056508
v -0.056508 0.113165 0.000000
v 0.000000 0.113165 0.056508
v 0.056508 0.113165 0.000000
v -0.113335 -0.014470 -0.046552
v -0.121406 -0.014464 0.056485
v -0.136214 0.028666 0.150520
v -0.140063 0.051630 0.140626
v -0.122986 0.097004 0.049108
v -0.114914 0.096511 -0.053929
v -0.091632 0.048675 -0.101765
v -0.089396 0.027451 -0.098698
v 0.041370 -0.002691 -0.064892
v -0.041370 -0.002691 -0.064892
v -0.044019 0.096511 -0.138693
v 0.044019 0.096511 -0.138693
v 0.091632 0.048675 -0.101765
v 0.089396 0.027451 -0.098698
v 0.121406 -0.014464 0.056485
v 0.113335 -0.014470 -0.046552
v 0.114914 0.096511 -0.053929
v 0.122986 0.097004 0.049108
v 0.140063 0.051630 0.140626
v 0.136214 0.028666 0.150520
v -0.050512 -0.013954 0.124826
v 0.050512 -0.013954 0.124826
v 0.043872 0.098683 0.128910
v -0.043872 0.098683 0.128910
v -0.339480 0.040223 -0.120214
v 0.000000 0.008885 -0.114918
v 0.339480 0.040223 -0.120214
v 0.000000 0.045388 0.300338
v 0.000000 -0.041192 0.000000
v 0.000000 0.117277 0.000000
v -0.136344 -0.014544 0.000918
v -0.164053 0.048343 0.174283
v -0.137923 0.103768 -0.006458
v -0.093020 0.041132 -0.113886
v 0.000000 -0.005469 -0.073974
v 0.000000 0.103645 -0.145827
v 0.093020 0.041132 -0.113886
v 0.136344 -0.014544 0.000918
v 0.137923 0.103768 -0.006458
v 0.164053 0.048343 0.174283
v 0.000000 -0.030707 0.129365
v 0.000000 0.097925 0.138255
v -0.099835 -0.014302 0.109041
v -0.104934 0.098043 0.100041
v -0.078310 -0.014316 -0.077016
v -0.079890 0.082058 -0.126575
v 0.099835 -0.014302 0.109041
v 0.104934 0.098043 0.100041
v 0.078310 -0.014316 -0.077016
v 0.079890 0.082058 -0.126575
v 0.048044 0.058757 0.193069
v 0.131117 0.051190 0.139110
v 0.041799 0.095224 0.128342
v 0.000000 0.060883 0.213433
v -0.048044 0.058757 0.193069
v -0.041799 0.095224 0.128342
v -0.131117 0.051190 0.139110
v 0.000000 0.094528 0.136890
v -0.098960 0.094625 0.101317
v 0.098960 0.094625 0.101317
v -0.285194 0.070237 0.044565
v -0.289161 0.071509 0.048801
v -0.313349 0.069925 -0.104610
v 0.285194 0.070237 0.044565
v 0.313349 0.069925 -0.104610
v 0.289161 0.071509 0.048801
v -0.328365 0.076292 -0.085754
v 0.328365 0.076292 -0.085754
v -0.029296 0.032766 -0.113110
v -0.038169 0.076140 -0.109330
v -0.018684 0.068315 -0.117260
v 0.018684 0.068315 -0.117260
v 0.038169 0.076140 -0.109330
v 0.029296 0.032766 -0.113110
v -0.013137 0.009324 -0.109495
v 0.000000 0.035376 -0.117764
v 0.000000 0.078788 -0.118301
v 0.013137 0.009324 -0.109495
v -0.022009 0.100078 -0.142260
v 0.022009 0.100078 -0.142260
v 0.019084 0.077464 -0.113815
v 0.017943 0.036055 -0.112351
v -0.019084 0.077464 -0.113815
v -0.017943 0.036055 -0.112351
vt 0.7058 0.1307
vt 0.6916 0.0723
vt 0.8969 0.0000
vt 0.7955 0.0826
vt 0.7688 0.2299
vt 0.7114 0.2472
vt 0.6571 0.2721
vt 0.6167 0.2328
vt 0.5933 0.2021
vt 0.2533 0.7079
vt 0.2534 0.6617
vt 0.2911 0.7121
vt 0.2873 0.7169
vt 0.1449 0.5883
vt 0.1775 0.5575
vt 0.2197 0.5100
vt 0.2736 0.5257
vt 0.3326 0.5368
vt 0.4513 0.7250
vt 0.2570 0.7602
vt 0.2699 0.7953
vt 0.2699 0.9243
vt 0.2466 0.8874
vt 0.4169 0.6003
vt 0.3786 0.5065
vt 0.9659 0.0000
vt 1.0000 0.0950
vt 0.9842 0.1351
vt 0.9500 0.1217
vt 0.1386 0.8796
vt 0.1587 0.7602
vt 0.1704 0.7631
vt 0.1704 0.9163
vt 0.8449 0.1654
vt 0.8972 0.1289
vt 0.8905 0.2822
vt 0.8740 0.2856
vt 0.8493 0.2962
vt 0.8178 0.2561
vt 0.8982 0.1915
vt 0.9097 0.1966
vt 0.9092 0.2116
vt 0.9086 0.2267
vt 0.8972 0.2267
vt 0.8694 0.3513
vt 0.8786 0.3864
vt 0.8466 0.3863
vt 0.8374 0.3391
vt 0.9280 0.1242
vt 0.9420 0.1201
vt 0.9368 0.2061
vt 0.9360 0.2267
vt 0.9711 0.1868
vt 0.9334 0.1931
vt 0.9990 0.1762
vt 0.9783 0.1829
vt 0.2419 0.8334
vt 0.2113 0.8356
vt 0.2074 0.8103
vt 0.2372 0.8115
vt 0.9368 0.2472
vt 0.9092 0.2417
vt 0.2419 0.7897
vt 0.2113 0.7853
vt 0.9711 0.2666
vt 0.9783 0.2704
vt 0.9990 0.2771
vt 0.9842 0.3182
vt 0.9500 0.3317
vt 0.9420 0.3333
vt 0.9097 0.2568
vt 0.9334 0.2602
vt 0.8982 0.2618
vt 0.8694 0.4215
vt 0.8786 0.4171
vt 0.8905 0.4951
vt 0.8740 0.4903
vt 0.8493 0.4754
vt 0.8374 0.4338
vt 0.8449 0.6106
vt 0.8972 0.6492
vt 0.8969 0.7772
vt 0.7955 0.6936
vt 0.7688 0.5421
vt 0.8178 0.5156
vt 0.0938 0.9243
vt 0.0834 0.7971
vt 0.1067 0.7602
vt 0.1067 0.8892
vt 0.1067 0.7946
vt 0.1386 0.7602
vt 0.1386 0.9146
vt 0.1269 0.9162
vt 0.9659 0.4534
vt 1.0000 0.3584
vt 0.3802 0.1496
vt 0.3573 0.2447
vt 0.3070 0.2225
vt 0.3939 0.0203
vt 0.0781 0.7929
vt 0.0701 0.7763
vt 0.2094 0.1209
vt 0.2508 0.2455
vt 0.2003 0.2709
vt 0.1515 0.2383
vt 0.1144 0.2145
vt 0.2019 0.0759
vt 0.7058 0.6461
vt 0.6916 0.7073
vt 0.5933 0.5776
vt 0.6167 0.5447
vt 0.6571 0.5006
vt 0.7114 0.5251
vt 0.5483 0.4603
vt 0.5024 0.4725
vt 0.4629 0.3901
vt 0.4788 0.3890
vt 0.6352 0.3855
vt 0.6409 0.4442
vt 0.1012 0.3444
vt 0.0838 0.4048
vt 0.0000 0.4138
vt 0.0327 0.3279
vt 0.2757 0.8372
vt 0.2746 0.7852
vt 0.2782 0.7849
vt 0.2793 0.8336
vt 0.1068 0.3477
vt 0.0905 0.4042
vt 0.1107 0.4613
vt 0.0460 0.4921
vt 0.2699 0.8122
vt 0.2710 0.7602
vt 0.2746 0.7638
vt 0.2736 0.8125
vt 0.1157 0.4572
vt 0.1782 0.5472
vt 0.5483 0.3174
vt 0.5024 0.3075
vt 0.6409 0.3286
vt 0.8218 0.3285
vt 0.8268 0.3846
vt 0.7683 0.3846
vt 0.7675 0.3241
vt 0.1911 0.7602
vt 0.2074 0.7701
vt 0.2044 0.8175
vt 0.1704 0.8175
vt 0.8218 0.4428
vt 0.7675 0.4474
vt 0.1911 0.8747
vt 0.2074 0.8649
vt 0.7132 0.4431
vt 0.7101 0.3849
vt 0.7132 0.3288
vt 0.3628 0.3149
vt 0.3720 0.3741
vt 0.3143 0.3793
vt 0.3087 0.3152
vt 0.4339 0.2787
vt 0.4509 0.3173
vt 0.4569 0.3417
vt 0.4629 0.3662
vt 0.3725 0.4347
vt 0.3192 0.4439
vt 0.4610 0.3919
vt 0.4591 0.4176
vt 0.4488 0.4607
vt 0.2645 0.4449
vt 0.2559 0.3850
vt 0.1845 0.4431
vt 0.1707 0.3941
vt 0.2548 0.3250
vt 0.1763 0.3432
vt 0.1539 0.2484
vt 0.1992 0.2781
vt 0.1768 0.3458
vt 0.1719 0.3943
vt 0.1846 0.4410
vt 0.2176 0.5035
vt 0.2757 0.7602
vt 0.2793 0.7616
vt 0.2710 0.8372
vt 0.2746 0.8359
vt 0.4469 0.7297
vt 0.4295 0.7482
vt 0.2382 0.0623
vt 0.2336 0.0581
vt 0.3685 0.0000
vt 0.3887 0.0158
vt 0.4629 0.7602
vt 0.0350 0.7602
vt 0.0350 1.0000
vt 0.0133 0.9640
vt 0.0000 0.8040
vt 0.0701 0.7602
vt 0.0701 1.0000
vt 0.0350 0.9562
vt 0.0483 0.7962
vt 0.2466 0.7679
vt 0.2152 0.7602
vt 0.9701 0.2481
vt 0.9796 0.2485
vt 0.9691 0.2267
vt 0.9809 0.2267
vt 0.9701 0.2053
vt 0.9796 0.2048
vt 0.2466 0.8553
vt 0.2152 0.8610
vn -0.4055 -0.8941 0.1903
vn -0.3375 -0.9299 0.1461
vn -0.4033 -0.8542 0.3283
vn -0.3220 -0.8818 0.3447
vn 0.0248 0.8908 0.4537
vn -0.0458 0.9924 0.1142
vn -0.3400 0.8663 0.3660
vn -0.3057 0.9366 0.1709
vn 0.0488 0.7112 -0.7013
vn -0.0210 0.9008 -0.4338
vn -0.3420 0.5760 -0.7425
vn 0.0674 0.8796 -0.4708
vn -0.0096 -0.9712 -0.2379
vn -0.0696 -0.8856 -0.4592
vn -0.2782 -0.6822 -0.6761
vn -0.2853 -0.9124 -0.2936
vn -0.2836 -0.5764 -0.7664
vn -0.0703 -0.9941 -0.0831
vn -0.0405 -0.7737 -0.6323
vn -0.2455 -0.6608 -0.7093
vn -0.3306 -0.1300 -0.9348
vn -0.0832 0.0515 -0.9952
vn 0.1355 -0.6293 -0.7652
vn -0.0356 -0.7631 -0.6453
vn 0.3306 -0.1300 -0.9348
vn 0.0356 -0.7631 -0.6453
vn -0.1355 -0.6293 -0.7652
vn 0.0832 0.0515 -0.9952
vn 0.2836 -0.5764 -0.7664
vn 0.2455 -0.6608 -0.7093
vn 0.0405 -0.7737 -0.6323
vn 0.0703 -0.9941 -0.0831
vn 0.0096 -0.9712 -0.2379
vn 0.2853 -0.9124 -0.2936
vn 0.2782 -0.6822 -0.6761
vn 0.0696 -0.8856 -0.4592
vn -0.0488 0.7112 -0.7013
vn -0.0674 0.8796 -0.4708
vn 0.3420 0.5760 -0.7425
vn 0.0210 0.9008 -0.4338
vn 0.3913 0.6737 -0.6269
vn 0.3057 0.9366 0.1709
vn 0.3400 0.8663 0.3660
vn 0.0458 0.9924 0.1142
vn 0.4055 -0.8941 0.1903
vn 0.3220 -0.8818 0.3447
vn 0.4033 -0.8542 0.3283
vn 0.3375 -0.9299 0.1461
vn 0.3651 -0.8171 0.4461
vn 0.3503 -0.8750 0.3340
vn 0.2936 -0.8519 0.4337
vn 0.3182 -0.8895 0.3279
vn 0.0966 0.9778 0.1858
vn 0.1223 0.9867 0.1071
vn 0.3933 -0.3736 0.8401
vn -0.0262 0.9860 -0.1648
vn -0.0966 0.9778 0.1858
vn -0.3933 -0.3736 0.8401
vn 0.0199 0.9855 -0.1688
vn -0.1223 0.9867 0.1071
vn -0.3651 -0.8171 0.4461
vn -0.3182 -0.8895 0.3279
vn -0.2936 -0.8519 0.4337
vn -0.3503 -0.8750 0.3340
vn -0.3773 -0.9252 -0.0395
vn -0.0604 -0.9979 -0.0215
vn 0.0919 -0.9619 -0.2573
vn -0.2584 -0.4921 -0.8313
vn 0.3773 -0.9252 -0.0395
vn 0.2584 -0.4921 -0.8313
vn -0.0919 -0.9619 -0.2573
vn 0.0604 -0.9979 -0.0215
vn 0.3748 -0.9263 0.0395
vn 0.0568 -0.9983 0.0148
vn 0.0371 -0.9983 0.0459
vn 0.3464 -0.9346 0.0808
vn -0.3748 -0.9263 0.0395
vn -0.3464 -0.9346 0.0808
vn -0.0371 -0.9983 0.0459
vn -0.0568 -0.9983 0.0148
vn 0.0755 0.9943 -0.0755
vn 0.1430 0.9787 -0.1473
vn 0.2838 0.9291 -0.2373
vn 0.1270 0.9832 -0.1312
vn -0.0755 0.9943 -0.0755
vn -0.1270 0.9832 -0.1312
vn -0.2838 0.9291 -0.2373
vn -0.1430 0.9787 -0.1473
vn -0.0755 0.9943 0.0755
vn -0.1482 0.9814 0.1223
vn -0.1217 0.9875 0.0999
vn -0.0543 0.9849 0.1641
vn 0.0755 0.9943 0.0755
vn 0.0543 0.9849 0.1641
vn 0.1217 0.9875 0.0999
vn 0.1482 0.9814 0.1223
vn 0.3343 0.8000 0.4983
vn 0.1537 0.8878 0.4338
vn -0.1537 0.8878 0.4338
vn -0.3343 0.8000 0.4983
vn 0.1621 0.5770 0.8005
vn 0.0262 0.9860 -0.1648
vn -0.0199 0.9855 -0.1688
vn 0.1988 -0.3211 0.9259
vn -0.1988 -0.3211 0.9259
vn -0.1621 0.5770 0.8005
vn 0.3104 0.9488 -0.0587
vn -0.3104 0.9488 -0.0587
vn 0.3773 0.9218 -0.0892
vn -0.3773 0.9218 -0.0892
vn -0.3913 0.6737 -0.6269
vn -0.0248 0.8908 0.4537
vn -0.9563 -0.0325 0.2907
vn 0.9563 -0.0325 0.2907
vn 0.0208 -0.8038 -0.5945
vn 0.2622 0.2824 -0.9228
vn 0.2416 0.3407 -0.9086
vn 0.2861 -0.1478 -0.9467
vn 0.1605 -0.0671 -0.9848
vn 0.1526 -0.2525 -0.9555
vn -0.2416 0.3407 -0.9086
vn -0.2622 0.2824 -0.9228
vn -0.0208 -0.8038 -0.5945
vn -0.1526 -0.2525 -0.9555
vn -0.1605 -0.0671 -0.9848
vn -0.2861 -0.1478 -0.9467
usemtl Material
s off
f 1/1/1 25/2/1 73/3/1 28/4/1
f 1/1/2 28/4/2 79/5/2 50/6/2
f 1/1/3 50/6/3 91/7/3 51/8/3
f 1/1/4 51/8/4 80/9/4 25/2/4
f 25/10/5 2/11/5 109/12/5 110/13/5
f 2/11/6 25/10/6 80/14/6 52/15/6
f 2/11/7 52/15/7 92/16/7 53/17/7
f 2/11/8 53/17/8 81/18/8 26/19/8
f 3/20/9 27/21/9 73/22/9 26/23/9
f 3/24/10 26/19/10 81/18/10 54/25/10
f 3/26/11 54/27/11 94/28/11 55/29/11
f 3/30/12 55/31/12 82/32/12 27/33/12
f 4/34/13 28/4/13 73/3/13 27/35/13
f 4/34/14 27/35/14 82/36/14 56/37/14
f 4/34/15 56/37/15 93/38/15 49/39/15
f 4/34/16 49/39/16 79/5/16 28/4/16
f 5/40/17 29/41/17 123/42/17 74/43/17 32/44/17
f 5/45/18 32/46/18 83/47/18 58/48/18
f 5/45/19 58/48/19 93/38/19 56/37/19
f 5/40/20 56/49/20 82/50/20 29/41/20
f 132/51/21 124/52/21 74/43/21 123/42/21
f 6/53/22 117/54/22 29/41/22 82/50/22 55/29/22
f 6/53/23 55/29/23 94/28/23 59/55/23 118/56/23
f 131/57/24 127/58/24 84/59/24 125/60/24
f 130/61/25 126/62/25 74/43/25 124/52/25
f 129/63/26 125/60/26 84/59/26 128/64/26
f 7/65/27 121/66/27 60/67/27 98/68/27 61/69/27
f 7/65/28 61/69/28 85/70/28 31/71/28 122/72/28
f 8/73/29 32/44/29 74/43/29 126/62/29 31/71/29
f 8/74/30 31/75/30 85/76/30 62/77/30
f 8/74/31 62/77/31 97/78/31 57/79/31
f 8/74/32 57/79/32 83/47/32 32/46/32
f 9/80/33 33/81/33 75/82/33 36/83/33
f 9/80/34 36/83/34 86/84/34 64/85/34
f 9/80/35 64/85/35 97/78/35 62/77/35
f 9/80/36 62/77/36 85/76/36 33/81/36
f 10/86/37 34/87/37 75/88/37 33/89/37
f 10/90/38 33/91/38 85/92/38 61/93/38
f 10/94/39 61/69/39 98/68/39 65/95/39
f 10/96/40 65/97/40 87/98/40 34/99/40
f 75/88/41 34/87/41 113/100/41 116/101/41
f 11/102/42 34/99/42 87/98/42 66/103/42
f 11/102/43 66/103/43 96/104/43 67/105/43
f 11/102/44 67/105/44 88/106/44 35/107/44
f 12/108/45 36/83/45 75/82/45 35/109/45
f 12/108/46 35/109/46 88/110/46 68/111/46
f 12/108/47 68/111/47 95/112/47 63/113/47
f 12/108/48 63/113/48 86/84/48 36/83/48
f 13/114/49 37/115/49 76/116/49 40/117/49
f 13/114/50 40/117/50 89/118/50 70/119/50
f 13/114/51 70/119/51 95/112/51 68/111/51
f 13/114/52 68/111/52 88/110/52 37/115/52
f 14/120/53 38/121/53 76/122/53 37/123/53
f 14/120/54 37/123/54 88/106/54 67/105/54
f 96/124/55 71/125/55 101/126/55 108/127/55
f 38/121/56 14/120/56 99/128/56 102/129/56
f 15/130/57 39/131/57 76/122/57 38/121/57
f 72/132/58 92/133/58 107/134/58 104/135/58
f 52/15/59 15/130/59 103/136/59 105/137/59
f 15/130/60 52/15/60 80/14/60 39/131/60
f 16/138/61 40/117/61 76/116/61 39/139/61
f 16/138/62 39/139/62 80/9/62 51/8/62
f 16/138/63 51/8/63 91/7/63 69/140/63
f 16/138/64 69/140/64 89/118/64 40/117/64
f 17/141/65 41/142/65 77/143/65 44/144/65
f 17/141/66 44/144/66 79/5/66 49/39/66
f 17/141/67 49/39/67 93/38/67 58/48/67
f 17/145/68 58/146/68 83/147/68 41/148/68
f 18/149/69 42/150/69 77/143/69 41/142/69
f 18/151/70 41/148/70 83/147/70 57/152/70
f 18/149/71 57/79/71 97/78/71 64/85/71
f 18/149/72 64/85/72 86/84/72 42/150/72
f 19/153/73 43/154/73 77/143/73 42/150/73
f 19/153/74 42/150/74 86/84/74 63/113/74
f 19/153/75 63/113/75 95/112/75 70/119/75
f 19/153/76 70/119/76 89/118/76 43/154/76
f 20/155/77 44/144/77 77/143/77 43/154/77
f 20/155/78 43/154/78 89/118/78 69/140/78
f 20/155/79 69/140/79 91/7/79 50/6/79
f 20/155/80 50/6/80 79/5/80 44/144/80
f 21/156/81 45/157/81 78/158/81 48/159/81
f 21/156/82 48/159/82 87/98/82 65/97/82
f 21/156/83 65/97/83 98/160/83 60/161/83
f 21/156/84 60/161/84 128/162/84 84/163/84 45/157/84
f 22/164/85 46/165/85 78/158/85 45/157/85
f 22/164/86 45/157/86 84/163/86 127/166/86 59/167/86
f 22/164/87 59/167/87 94/168/87 54/25/87
f 22/164/88 54/25/88 81/18/88 46/165/88
f 23/169/89 47/170/89 78/158/89 46/165/89
f 23/169/90 46/165/90 81/18/90 53/17/90
f 23/169/91 53/17/91 92/16/91 72/171/91
f 23/169/92 72/171/92 90/172/92 47/170/92
f 24/173/93 48/159/93 78/158/93 47/170/93
f 24/173/94 47/170/94 90/172/94 71/174/94
f 24/173/95 71/174/95 96/104/95 66/103/95
f 24/173/96 66/103/96 87/98/96 48/159/96
f 99/128/97 100/175/97 108/176/97 101/177/97
f 99/128/98 101/177/98 106/178/98 102/129/98
f 103/136/99 102/129/99 106/178/99 104/179/99
f 103/136/100 104/179/100 107/180/100 105/137/100
f 92/16/101 52/15/101 105/137/101 107/180/101
f 15/130/102 38/121/102 102/129/102 103/136/102
f 14/120/103 67/105/103 100/175/103 99/128/103
f 71/125/104 90/181/104 106/182/104 101/126/104
f 90/183/105 72/132/105 104/135/105 106/184/105
f 67/105/106 96/104/106 108/176/106 100/175/106
f 109/12/107 111/185/107 115/186/107 110/13/107
f 112/187/108 114/188/108 116/189/108 113/190/108
f 2/11/109 26/19/109 111/185/109 109/12/109
f 34/99/110 11/102/110 112/187/110 113/190/110
f 26/19/111 73/191/111 115/186/111 111/185/111
f 11/102/112 35/107/112 114/188/112 112/187/112
f 73/192/113 25/193/113 110/194/113 115/195/113
f 35/196/114 75/197/114 116/198/114 114/199/114
f 121/200/115 129/63/115 128/64/115 60/201/115
f 7/65/116 120/202/116 129/203/116 121/66/116
f 120/202/117 30/204/117 125/205/117 129/203/117
f 120/202/118 130/61/118 124/52/118 30/204/118
f 7/65/119 122/72/119 130/61/119 120/202/119
f 122/72/120 31/71/120 126/62/120 130/61/120
f 119/206/121 131/207/121 125/205/121 30/204/121
f 6/53/122 118/56/122 131/207/122 119/206/122
f 118/208/123 59/209/123 127/58/123 131/57/123
f 117/54/124 132/51/124 123/42/124 29/41/124
f 6/53/125 119/206/125 132/51/125 117/54/125
f 119/206/126 30/204/126 124/52/126 132/51/126
