# Blender v2.78 (sub 0) OBJ File: 'statek_GRK.blend'
# www.blender.org
mtllib sat_Mini2.mtl
o sat_Cube.000
v -0.054866 0.113027 0.053158
v -0.054866 0.215480 0.053158
v -0.054866 0.113027 -0.049295
v -0.054866 0.215480 -0.049295
v 0.054866 0.113027 0.053158
v 0.054866 0.215480 0.053158
v 0.054866 0.113027 -0.049295
v 0.054866 0.215480 -0.049295
v -0.054866 0.113027 0.001932
v -0.054866 0.164254 0.053158
v -0.054866 0.215480 0.001932
v -0.054866 0.164254 -0.049295
v 0.000000 0.113027 -0.049295
v 0.000000 0.215480 -0.049295
v 0.054866 0.164254 -0.049295
v 0.054866 0.113027 0.001932
v 0.054866 0.215480 0.001932
v 0.054866 0.164254 0.053158
v 0.000000 0.113027 0.053158
v 0.000000 0.215480 0.053158
v 0.000000 0.215480 0.001932
v 0.000000 0.113027 0.001932
v 0.000000 0.164254 0.053158
v 0.054866 0.164254 0.001932
v 0.000000 0.164254 -0.049295
v -0.054866 0.164254 0.001932
v -0.054866 0.113027 0.027545
v -0.054866 0.189867 0.053158
v -0.054866 0.215480 -0.023681
v -0.054866 0.138641 -0.049295
v -0.029253 0.113027 -0.049295
v 0.029253 0.215480 -0.049295
v 0.054866 0.138641 -0.049295
v 0.054866 0.113027 -0.023681
v 0.054866 0.215480 0.027545
v 0.054866 0.138641 0.053158
v 0.029253 0.113027 0.053158
v -0.029253 0.215480 0.053158
v -0.054866 0.113027 -0.023681
v -0.054866 0.138641 0.053158
v -0.054866 0.215480 0.027545
v -0.054866 0.189867 -0.049295
v 0.029253 0.113027 -0.049295
v -0.029253 0.215480 -0.049295
v 0.054866 0.189867 -0.049295
v 0.054866 0.113027 0.027545
v 0.054866 0.215480 -0.023681
v 0.054866 0.189867 0.053158
v -0.029253 0.113027 0.053158
v 0.029253 0.215480 0.053158
v 0.000000 0.215480 0.027545
v 0.000000 0.215480 -0.023681
v 0.029253 0.215480 0.001932
v -0.029253 0.215480 0.001932
v 0.000000 0.113027 0.027545
v 0.000000 0.113027 -0.023681
v -0.029253 0.113027 0.001932
v 0.029253 0.113027 0.001932
v -0.029253 0.164254 0.053158
v 0.029253 0.164254 0.053158
v 0.000000 0.138641 0.053158
v 0.000000 0.189867 0.053158
v 0.054866 0.164254 0.027545
v 0.054866 0.164254 -0.023681
v 0.054866 0.138641 0.001932
v 0.054866 0.189867 0.001932
v 0.029253 0.164254 -0.049295
v -0.029253 0.164254 -0.049295
v 0.000000 0.138641 -0.049295
v 0.000000 0.189867 -0.049295
v -0.054866 0.164254 -0.023681
v -0.054866 0.164254 0.027545
v -0.054866 0.138641 0.001932
v -0.054866 0.189867 0.001932
v -0.054866 0.189867 0.027545
v -0.054866 0.138641 0.027545
v -0.054866 0.138641 -0.023681
v -0.029253 0.189867 -0.049295
v -0.029253 0.138641 -0.049295
v 0.029253 0.138641 -0.049295
v 0.054866 0.189867 -0.023681
v 0.054866 0.138641 -0.023681
v 0.054866 0.138641 0.027545
v 0.029253 0.189867 0.053158
v 0.029253 0.138641 0.053158
v -0.029253 0.138641 0.053158
v 0.029253 0.113027 -0.023681
v -0.029253 0.113027 -0.023681
v -0.029253 0.113027 0.027545
v -0.029253 0.215480 -0.023681
v 0.029253 0.215480 -0.023681
v 0.029253 0.215480 0.027545
v -0.029253 0.215480 0.027545
v 0.029253 0.113027 0.027545
v -0.029253 0.189867 0.053158
v 0.054866 0.189867 0.027545
v 0.029253 0.189867 -0.049295
v -0.054866 0.189867 -0.023681
v 0.255782 0.164254 0.001932
v 0.255782 0.164254 0.027545
v 0.255782 0.138641 0.001932
v 0.255782 0.138641 0.027545
v -0.255782 0.164254 0.027545
v -0.255782 0.164254 0.001932
v -0.255782 0.138641 0.001932
v -0.255782 0.138641 0.027545
v 0.054866 0.151447 0.001932
v -0.054866 0.151447 0.001932
v 0.255782 0.151447 0.001932
v 0.080480 0.164254 0.001932
v 0.080480 0.138641 0.001932
v -0.255782 0.151447 0.001932
v -0.080480 0.164254 0.001932
v -0.080480 0.138641 0.001932
v -0.080480 0.151447 0.001932
v 0.080480 0.151447 0.001932
v -0.080480 0.243336 -0.003191
v -0.255782 0.243336 -0.003191
v -0.255782 0.072365 -0.003191
v -0.080480 0.072365 -0.003191
v 0.080480 0.243336 -0.003191
v 0.255782 0.243336 -0.003191
v 0.255782 0.072365 -0.003191
v 0.080480 0.072365 -0.003191
v 0.000000 0.238287 -0.023681
v 0.000000 0.238287 0.001932
v -0.029253 0.238287 0.001932
v -0.029253 0.238287 -0.023681
vn -1.0000 0.0000 0.0000
vn 0.0000 0.0000 -1.0000
vn 1.0000 0.0000 0.0000
vn 0.0000 0.0000 1.0000
vn 0.0000 -1.0000 0.0000
vn 0.0000 1.0000 0.0000
vn 0.0000 -0.0646 0.9979
vn 0.0000 0.0646 0.9979
usemtl Material.001
s off
f 98//1 29//1 4//1 42//1
f 97//2 32//2 8//2 45//2
f 96//3 35//3 6//3 48//3
f 95//4 38//4 2//4 28//4
f 94//5 46//5 5//5 37//5
f 93//6 41//6 2//6 38//6
f 92//6 51//6 20//6 50//6
f 91//6 52//6 21//6 53//6
f 90//6 29//6 11//6 54//6
f 89//5 55//5 19//5 49//5
f 88//5 56//5 22//5 57//5
f 87//5 34//5 16//5 58//5
f 86//4 59//4 10//4 40//4
f 85//4 60//4 23//4 61//4
f 84//4 50//4 20//4 62//4
f 83//3 63//3 18//3 36//3
f 82//3 64//3 24//3 107//3 65//3
f 81//3 47//3 17//3 66//3
f 80//2 67//2 15//2 33//2
f 79//2 68//2 25//2 69//2
f 78//2 44//2 14//2 70//2
f 77//1 71//1 12//1 30//1
f 72//6 26//6 113//6 104//6 103//6
f 75//1 41//1 11//1 74//1
f 72//1 75//1 74//1 26//1
f 10//1 28//1 75//1 72//1
f 28//1 2//1 41//1 75//1
f 27//1 76//1 73//1 9//1
f 1//1 40//1 76//1 27//1
f 40//1 10//1 72//1 76//1
f 39//1 77//1 30//1 3//1
f 9//1 73//1 77//1 39//1
f 73//1 108//1 26//1 71//1 77//1
f 68//2 78//2 70//2 25//2
f 12//2 42//2 78//2 68//2
f 42//2 4//2 44//2 78//2
f 31//2 79//2 69//2 13//2
f 3//2 30//2 79//2 31//2
f 30//2 12//2 68//2 79//2
f 43//2 80//2 33//2 7//2
f 13//2 69//2 80//2 43//2
f 69//2 25//2 67//2 80//2
f 64//3 81//3 66//3 24//3
f 15//3 45//3 81//3 64//3
f 45//3 8//3 47//3 81//3
f 34//3 82//3 65//3 16//3
f 7//3 33//3 82//3 34//3
f 33//3 15//3 64//3 82//3
f 46//3 83//3 36//3 5//3
f 16//3 65//3 83//3 46//3
f 109//7 116//7 124//7 123//7
f 60//4 84//4 62//4 23//4
f 18//4 48//4 84//4 60//4
f 48//4 6//4 50//4 84//4
f 37//4 85//4 61//4 19//4
f 5//4 36//4 85//4 37//4
f 36//4 18//4 60//4 85//4
f 49//4 86//4 40//4 1//4
f 19//4 61//4 86//4 49//4
f 61//4 23//4 59//4 86//4
f 56//5 87//5 58//5 22//5
f 13//5 43//5 87//5 56//5
f 43//5 7//5 34//5 87//5
f 39//5 88//5 57//5 9//5
f 3//5 31//5 88//5 39//5
f 31//5 13//5 56//5 88//5
f 27//5 89//5 49//5 1//5
f 9//5 57//5 89//5 27//5
f 57//5 22//5 55//5 89//5
f 90//1 54//1 127//1 128//1
f 14//6 44//6 90//6 52//6
f 44//6 4//6 29//6 90//6
f 47//6 91//6 53//6 17//6
f 8//6 32//6 91//6 47//6
f 32//6 14//6 52//6 91//6
f 35//6 92//6 50//6 6//6
f 17//6 53//6 92//6 35//6
f 53//6 21//6 51//6 92//6
f 51//6 93//6 38//6 20//6
f 21//6 54//6 93//6 51//6
f 54//6 11//6 41//6 93//6
f 55//5 94//5 37//5 19//5
f 22//5 58//5 94//5 55//5
f 58//5 16//5 46//5 94//5
f 59//4 95//4 28//4 10//4
f 23//4 62//4 95//4 59//4
f 62//4 20//4 38//4 95//4
f 63//3 96//3 48//3 18//3
f 24//3 66//3 96//3 63//3
f 66//3 17//3 35//3 96//3
f 67//2 97//2 45//2 15//2
f 25//2 70//2 97//2 67//2
f 70//2 14//2 32//2 97//2
f 71//1 98//1 42//1 12//1
f 26//1 74//1 98//1 71//1
f 74//1 11//1 29//1 98//1
f 101//3 109//3 99//3 100//3 102//3
f 24//6 63//6 100//6 99//6 110//6
f 63//4 83//4 102//4 100//4
f 83//5 65//5 111//5 101//5 102//5
f 106//1 103//1 104//1 112//1 105//1
f 73//5 76//5 106//5 105//5 114//5
f 115//2 114//2 105//2 112//2
f 76//4 72//4 103//4 106//4
f 113//3 115//3 120//3 117//3
f 26//2 108//2 115//2 113//2
f 108//2 73//2 114//2 115//2
f 111//2 116//2 109//2 101//2
f 65//2 107//2 116//2 111//2
f 107//2 24//2 110//2 116//2
f 117//2 120//2 119//2 118//2
f 115//7 112//7 119//7 120//7
f 104//8 113//8 117//8 118//8
f 112//1 104//1 118//1 119//1
f 124//2 121//2 122//2 123//2
f 110//8 99//8 122//8 121//8
f 116//1 110//1 121//1 124//1
f 99//3 109//3 123//3 122//3
f 125//6 128//6 127//6 126//6
f 54//4 21//4 126//4 127//4
f 21//3 52//3 125//3 126//3
f 52//2 90//2 128//2 125//2
